# Blender v3.1.2 OBJ File: ''
# www.blender.org
mtllib item1.mtl
o Cube
v 1.000000 1.000000 -1.000000
v 1.000000 -1.000000 -1.000000
v 1.000000 1.000000 1.000000
v 1.000000 -1.000000 1.000000
v -1.000000 1.000000 -1.000000
v -1.000000 -1.000000 -1.000000
v -1.000000 1.000000 1.000000
v -1.000000 -1.000000 1.000000
v 0.607097 1.379648 -0.607097
v 0.607097 1.379648 0.607097
v -0.607097 1.379648 -0.607097
v -0.607097 1.379648 0.607097
v 1.000000 1.379648 1.000000
v -1.000000 1.379648 1.000000
v 1.000000 1.379648 -1.000000
v -1.000000 1.379648 -1.000000
v 0.607097 1.981204 -0.607097
v 0.607097 1.981204 0.607097
v -0.607097 1.981204 -0.607097
v -0.607097 1.981204 0.607097
vt 0.625000 0.000000
vt 0.625000 0.250000
vt 0.625000 0.250000
vt 0.625000 0.750000
vt 0.375000 1.000000
vt 0.375000 0.750000
vt 0.375000 0.250000
vt 0.375000 0.000000
vt 0.375000 0.500000
vt 0.125000 0.750000
vt 0.125000 0.500000
vt 0.625000 0.500000
vt 0.825887 0.549113
vt 0.674113 0.549113
vt 0.674113 0.549113
vt 0.625000 0.750000
vt 0.625000 0.500000
vt 0.625000 1.000000
vt 0.625000 1.000000
vt 0.825887 0.700887
vt 0.674113 0.700887
vt 0.875000 0.750000
vt 0.875000 0.500000
vt 0.825887 0.549113
vt 0.674113 0.700887
vt 0.825887 0.700887
vt 0.625000 0.000000
vn -1.0000 0.0000 0.0000
vn 0.0000 0.0000 1.0000
vn 0.0000 -1.0000 0.0000
vn 1.0000 0.0000 0.0000
vn 0.0000 0.0000 -1.0000
vn 0.0000 1.0000 -0.0000
usemtl Material
s off
f 7/1/1 16/2/1 5/3/1
f 3/4/2 8/5/2 4/6/2
f 7/1/1 6/7/1 8/8/1
f 2/9/3 8/10/3 6/11/3
f 1/12/4 4/6/4 2/9/4
f 5/3/5 2/9/5 6/7/5
f 11/13/5 17/14/5 9/15/5
f 1/12/4 13/16/4 3/4/4
f 5/3/5 15/17/5 1/12/5
f 3/4/2 14/18/2 7/19/2
f 12/20/6 13/16/6 10/21/6
f 10/21/6 15/17/6 9/15/6
f 11/13/6 14/22/6 12/20/6
f 9/15/6 16/23/6 11/13/6
f 19/24/6 18/25/6 17/14/6
f 9/15/4 18/25/4 10/21/4
f 12/20/1 19/24/1 11/13/1
f 10/21/2 20/26/2 12/20/2
f 3/4/4 1/12/4 13/16/4
f 4/6/2 7/19/2 8/5/2
f 3/4/5 7/19/5 14/27/5
f 5/3/1 7/1/1 16/2/1
f 7/1/1 14/27/1 16/2/1
f 3/4/2 7/19/2 8/5/2
f 7/1/1 5/3/1 6/7/1
f 2/9/3 4/6/3 8/10/3
f 1/12/4 3/4/4 4/6/4
f 5/3/5 1/12/5 2/9/5
f 11/13/5 19/24/5 17/14/5
f 1/12/4 15/17/4 13/16/4
f 5/3/5 16/2/5 15/17/5
f 3/4/2 13/16/2 14/18/2
f 12/20/6 14/22/6 13/16/6
f 10/21/6 13/16/6 15/17/6
f 11/13/6 16/23/6 14/22/6
f 9/15/6 15/17/6 16/23/6
f 19/24/6 20/26/6 18/25/6
f 9/15/4 17/14/4 18/25/4
f 12/20/1 20/26/1 19/24/1
f 10/21/2 18/25/2 20/26/2
l 2 3
l 5 8
l 1 6
l 9 12
